<mxfile host="Electron" modified="2023-09-15T15:30:44.064Z" agent="Mozilla/5.0 (Windows NT 10.0; Win64; x64) AppleWebKit/537.36 (KHTML, like Gecko) draw.io/21.6.8 Chrome/114.0.5735.289 Electron/25.5.0 Safari/537.36" etag="v-3wscHY2JOSJUwaDPVv" version="21.6.8" type="device">
  <diagram name="Page-1" id="iaMmfLkFWlHhySMgeEFM">
    <mxGraphModel dx="2307" dy="877" grid="1" gridSize="10" guides="1" tooltips="1" connect="1" arrows="1" fold="1" page="1" pageScale="1" pageWidth="827" pageHeight="1169" math="0" shadow="0">
      <root>
        <mxCell id="0" />
        <mxCell id="1" parent="0" />
        <mxCell id="H59ljtGWUlVFBmVZXc05-3" value="&lt;font style=&quot;font-size: 40px;&quot;&gt;&lt;b&gt;Support Subsystem&lt;/b&gt;&lt;br&gt;&lt;/font&gt;&lt;br&gt;&lt;p class=&quot;MsoNormal&quot;&gt;This subsystem will coordinate and ensure that Road Warrior&lt;br&gt;Travelers are put in contact with the correct support agent depending on the travellers’&lt;br&gt;enquiry&lt;/p&gt;" style="rounded=0;whiteSpace=wrap;html=1;hachureGap=4;jiggle=2;curveFitting=1;fontFamily=Architects Daughter;fontSource=https%3A%2F%2Ffonts.googleapis.com%2Fcss%3Ffamily%3DArchitects%2BDaughter;fontSize=20;fillColor=#ABFFFF;sketch=1;" parent="1" vertex="1">
          <mxGeometry x="-810" y="100" width="1100" height="190" as="geometry" />
        </mxCell>
        <mxCell id="H59ljtGWUlVFBmVZXc05-5" value="Real time chat system API" style="rounded=1;whiteSpace=wrap;html=1;labelBackgroundColor=none;sketch=1;fillColor=#FFFFFF;" parent="1" vertex="1">
          <mxGeometry x="-340" y="555" width="120" height="60" as="geometry" />
        </mxCell>
        <mxCell id="H59ljtGWUlVFBmVZXc05-7" value="Traveler User Interface&lt;br&gt;&lt;br&gt;&lt;br&gt;&lt;br&gt;&lt;br&gt;&lt;br&gt;&lt;br&gt;" style="rounded=1;whiteSpace=wrap;html=1;labelBackgroundColor=none;sketch=1;fillColor=#fad7ac;dashed=1;strokeColor=#b46504;" parent="1" vertex="1">
          <mxGeometry x="-470" y="317.5" width="220" height="170" as="geometry" />
        </mxCell>
        <mxCell id="H59ljtGWUlVFBmVZXc05-24" style="rounded=0;sketch=1;orthogonalLoop=1;jettySize=auto;html=1;exitX=0.5;exitY=0;exitDx=0;exitDy=0;entryX=0.75;entryY=1;entryDx=0;entryDy=0;startArrow=classic;startFill=1;endArrow=classic;endFill=1;" parent="1" source="H59ljtGWUlVFBmVZXc05-5" target="H59ljtGWUlVFBmVZXc05-6" edge="1">
          <mxGeometry relative="1" as="geometry" />
        </mxCell>
        <mxCell id="H59ljtGWUlVFBmVZXc05-45" style="edgeStyle=none;rounded=0;sketch=1;orthogonalLoop=1;jettySize=auto;html=1;exitX=0.25;exitY=1;exitDx=0;exitDy=0;entryX=0.5;entryY=0;entryDx=0;entryDy=0;startArrow=classic;startFill=1;endArrow=classic;endFill=1;" parent="1" source="H59ljtGWUlVFBmVZXc05-6" target="H59ljtGWUlVFBmVZXc05-42" edge="1">
          <mxGeometry relative="1" as="geometry" />
        </mxCell>
        <mxCell id="H59ljtGWUlVFBmVZXc05-6" value="Support Micro Frontend&amp;nbsp;" style="rounded=1;whiteSpace=wrap;html=1;labelBackgroundColor=none;sketch=1;" parent="1" vertex="1">
          <mxGeometry x="-420" y="387.5" width="120" height="60" as="geometry" />
        </mxCell>
        <mxCell id="H59ljtGWUlVFBmVZXc05-9" style="edgeStyle=orthogonalEdgeStyle;rounded=0;sketch=1;orthogonalLoop=1;jettySize=auto;html=1;exitX=1;exitY=0.5;exitDx=0;exitDy=0;entryX=0;entryY=0.5;entryDx=0;entryDy=0;startArrow=classic;startFill=1;" parent="1" source="H59ljtGWUlVFBmVZXc05-6" target="H59ljtGWUlVFBmVZXc05-35" edge="1">
          <mxGeometry relative="1" as="geometry">
            <mxPoint x="-120" y="530" as="sourcePoint" />
            <mxPoint x="-130" y="440" as="targetPoint" />
          </mxGeometry>
        </mxCell>
        <mxCell id="H59ljtGWUlVFBmVZXc05-26" style="edgeStyle=orthogonalEdgeStyle;rounded=0;sketch=1;orthogonalLoop=1;jettySize=auto;html=1;exitX=0;exitY=0.5;exitDx=0;exitDy=0;entryX=0.5;entryY=1;entryDx=0;entryDy=0;entryPerimeter=0;startArrow=none;startFill=0;endArrow=classic;endFill=1;" parent="1" source="H59ljtGWUlVFBmVZXc05-10" target="H59ljtGWUlVFBmVZXc05-25" edge="1">
          <mxGeometry relative="1" as="geometry" />
        </mxCell>
        <mxCell id="H59ljtGWUlVFBmVZXc05-10" value="Support Agent Coordinator" style="rounded=1;whiteSpace=wrap;html=1;labelBackgroundColor=none;sketch=1;fillColor=#FFFFFF;" parent="1" vertex="1">
          <mxGeometry x="-50" y="555" width="120" height="60" as="geometry" />
        </mxCell>
        <mxCell id="H59ljtGWUlVFBmVZXc05-15" style="rounded=0;sketch=1;orthogonalLoop=1;jettySize=auto;html=1;exitX=0;exitY=0;exitDx=200;exitDy=77.5;exitPerimeter=0;entryX=0;entryY=0.5;entryDx=0;entryDy=0;dashed=1;endArrow=none;endFill=0;" parent="1" source="H59ljtGWUlVFBmVZXc05-14" target="H59ljtGWUlVFBmVZXc05-6" edge="1">
          <mxGeometry relative="1" as="geometry">
            <mxPoint x="-542.5" y="349.9999999999998" as="sourcePoint" />
          </mxGeometry>
        </mxCell>
        <mxCell id="H59ljtGWUlVFBmVZXc05-14" value="&lt;p class=&quot;MsoNormal&quot;&gt;A traveller will initiate a support instance through a mirco&lt;br/&gt;frontend that will be injected into either the frontend or mobile application.&lt;/p&gt;" style="shape=note;whiteSpace=wrap;html=1;backgroundOutline=1;darkOpacity=0.05;labelBackgroundColor=none;sketch=1;fillColor=#ABFFFF;" parent="1" vertex="1">
          <mxGeometry x="-760" y="330" width="200" height="125" as="geometry" />
        </mxCell>
        <mxCell id="H59ljtGWUlVFBmVZXc05-17" style="edgeStyle=none;rounded=0;sketch=1;orthogonalLoop=1;jettySize=auto;html=1;exitX=0;exitY=0.5;exitDx=0;exitDy=0;exitPerimeter=0;entryX=1;entryY=0.5;entryDx=0;entryDy=0;dashed=1;endArrow=none;endFill=0;" parent="1" source="H59ljtGWUlVFBmVZXc05-16" target="H59ljtGWUlVFBmVZXc05-10" edge="1">
          <mxGeometry relative="1" as="geometry" />
        </mxCell>
        <mxCell id="H59ljtGWUlVFBmVZXc05-16" value="&lt;p class=&quot;MsoNormal&quot;&gt;The support agent coordinator will assign either a Road&lt;br/&gt;Warrior or Travel Provider agent depending on the traveller’s requirement. i.e.&lt;br/&gt;location, availability or department.&lt;/p&gt;" style="shape=note;whiteSpace=wrap;html=1;backgroundOutline=1;darkOpacity=0.05;labelBackgroundColor=none;sketch=1;fillColor=#ABFFFF;" parent="1" vertex="1">
          <mxGeometry x="110" y="508.75" width="180" height="152.5" as="geometry" />
        </mxCell>
        <mxCell id="H59ljtGWUlVFBmVZXc05-18" value="&lt;br&gt;&lt;br&gt;&lt;br&gt;&lt;br&gt;&lt;br&gt;&lt;br&gt;&lt;br&gt;&lt;br&gt;Internal Web Interface" style="rounded=1;whiteSpace=wrap;html=1;labelBackgroundColor=none;sketch=1;fillColor=#fad7ac;dashed=1;strokeColor=#b46504;" parent="1" vertex="1">
          <mxGeometry x="-470" y="690" width="220" height="170" as="geometry" />
        </mxCell>
        <mxCell id="H59ljtGWUlVFBmVZXc05-23" style="rounded=0;sketch=1;orthogonalLoop=1;jettySize=auto;html=1;exitX=0.75;exitY=0;exitDx=0;exitDy=0;entryX=0.5;entryY=1;entryDx=0;entryDy=0;startArrow=classic;startFill=1;endArrow=classic;endFill=1;" parent="1" source="H59ljtGWUlVFBmVZXc05-19" target="H59ljtGWUlVFBmVZXc05-5" edge="1">
          <mxGeometry relative="1" as="geometry" />
        </mxCell>
        <mxCell id="H59ljtGWUlVFBmVZXc05-44" style="rounded=0;sketch=1;orthogonalLoop=1;jettySize=auto;html=1;exitX=0.25;exitY=0;exitDx=0;exitDy=0;entryX=0.5;entryY=1;entryDx=0;entryDy=0;startArrow=classic;startFill=1;endArrow=classic;endFill=1;" parent="1" source="H59ljtGWUlVFBmVZXc05-19" target="H59ljtGWUlVFBmVZXc05-42" edge="1">
          <mxGeometry relative="1" as="geometry" />
        </mxCell>
        <mxCell id="H59ljtGWUlVFBmVZXc05-19" value="Support Micro Frontend&amp;nbsp;" style="rounded=1;whiteSpace=wrap;html=1;labelBackgroundColor=none;sketch=1;" parent="1" vertex="1">
          <mxGeometry x="-420" y="740" width="120" height="60" as="geometry" />
        </mxCell>
        <mxCell id="H59ljtGWUlVFBmVZXc05-27" style="edgeStyle=orthogonalEdgeStyle;rounded=0;sketch=1;orthogonalLoop=1;jettySize=auto;html=1;exitX=0.5;exitY=0;exitDx=0;exitDy=0;exitPerimeter=0;entryX=1;entryY=0.5;entryDx=0;entryDy=0;startArrow=none;startFill=0;endArrow=classic;endFill=1;" parent="1" source="H59ljtGWUlVFBmVZXc05-25" target="H59ljtGWUlVFBmVZXc05-5" edge="1">
          <mxGeometry relative="1" as="geometry" />
        </mxCell>
        <mxCell id="H59ljtGWUlVFBmVZXc05-25" value="" style="shape=cylinder3;whiteSpace=wrap;html=1;boundedLbl=1;backgroundOutline=1;size=15;labelBackgroundColor=none;sketch=1;fillColor=#FFFFFF;rotation=-90;" parent="1" vertex="1">
          <mxGeometry x="-150" y="535" width="30" height="100" as="geometry" />
        </mxCell>
        <mxCell id="H59ljtGWUlVFBmVZXc05-33" value="Point to Point" style="text;html=1;strokeColor=none;fillColor=none;align=center;verticalAlign=middle;whiteSpace=wrap;rounded=0;labelBackgroundColor=none;sketch=1;" parent="1" vertex="1">
          <mxGeometry x="-155" y="530" width="80" height="30" as="geometry" />
        </mxCell>
        <mxCell id="H59ljtGWUlVFBmVZXc05-38" style="edgeStyle=orthogonalEdgeStyle;rounded=0;sketch=1;orthogonalLoop=1;jettySize=auto;html=1;exitX=0.5;exitY=1;exitDx=0;exitDy=0;entryX=0.5;entryY=0;entryDx=0;entryDy=0;startArrow=none;startFill=0;endArrow=classic;endFill=1;" parent="1" source="H59ljtGWUlVFBmVZXc05-35" target="H59ljtGWUlVFBmVZXc05-10" edge="1">
          <mxGeometry relative="1" as="geometry" />
        </mxCell>
        <mxCell id="H59ljtGWUlVFBmVZXc05-35" value="FAQ Chatbot" style="rounded=1;whiteSpace=wrap;html=1;labelBackgroundColor=none;sketch=1;fillColor=#FFFFFF;" parent="1" vertex="1">
          <mxGeometry x="-50" y="387.5" width="120" height="60" as="geometry" />
        </mxCell>
        <mxCell id="H59ljtGWUlVFBmVZXc05-39" value="&lt;p class=&quot;MsoNormal&quot;&gt;A support Chatbot will first assist Travelers with FAQs&lt;br/&gt;related to their request and allow Travelers to initiate a real time chat with&lt;br/&gt;a support agent.&lt;/p&gt;" style="shape=note;whiteSpace=wrap;html=1;backgroundOutline=1;darkOpacity=0.05;labelBackgroundColor=none;sketch=1;fillColor=#ABFFFF;" parent="1" vertex="1">
          <mxGeometry x="110" y="355" width="180" height="125" as="geometry" />
        </mxCell>
        <mxCell id="H59ljtGWUlVFBmVZXc05-40" style="edgeStyle=none;rounded=0;sketch=1;orthogonalLoop=1;jettySize=auto;html=1;exitX=0;exitY=0.5;exitDx=0;exitDy=0;exitPerimeter=0;entryX=1;entryY=0.5;entryDx=0;entryDy=0;dashed=1;endArrow=none;endFill=0;" parent="1" source="H59ljtGWUlVFBmVZXc05-39" target="H59ljtGWUlVFBmVZXc05-35" edge="1">
          <mxGeometry relative="1" as="geometry">
            <mxPoint x="227.5" y="592.4999999999998" as="sourcePoint" />
            <mxPoint x="120" y="589.9999999999998" as="targetPoint" />
          </mxGeometry>
        </mxCell>
        <mxCell id="H59ljtGWUlVFBmVZXc05-42" value="Trip Managenent Subsystem" style="rounded=1;whiteSpace=wrap;html=1;labelBackgroundColor=none;sketch=1;fillColor=#fad7ac;strokeColor=#b46504;" parent="1" vertex="1">
          <mxGeometry x="-500" y="555" width="120" height="60" as="geometry" />
        </mxCell>
        <mxCell id="H59ljtGWUlVFBmVZXc05-48" style="edgeStyle=none;rounded=0;sketch=1;orthogonalLoop=1;jettySize=auto;html=1;exitX=0;exitY=0;exitDx=200;exitDy=77.5;exitPerimeter=0;entryX=0;entryY=0.5;entryDx=0;entryDy=0;startArrow=none;startFill=0;endArrow=none;endFill=0;dashed=1;" parent="1" source="H59ljtGWUlVFBmVZXc05-47" target="H59ljtGWUlVFBmVZXc05-42" edge="1">
          <mxGeometry relative="1" as="geometry" />
        </mxCell>
        <mxCell id="H59ljtGWUlVFBmVZXc05-47" value="&lt;p class=&quot;MsoNormal&quot;&gt;The Support subsystem will occasionally need to call out to&lt;br/&gt;the trip management subsystem to gain access to a travellers&#39; trip information.&amp;nbsp;&lt;/p&gt;" style="shape=note;whiteSpace=wrap;html=1;backgroundOutline=1;darkOpacity=0.05;labelBackgroundColor=none;sketch=1;fillColor=#ABFFFF;" parent="1" vertex="1">
          <mxGeometry x="-760" y="510" width="200" height="125" as="geometry" />
        </mxCell>
        <mxCell id="H59ljtGWUlVFBmVZXc05-50" style="edgeStyle=none;rounded=0;sketch=1;orthogonalLoop=1;jettySize=auto;html=1;exitX=0;exitY=0;exitDx=200;exitDy=77.5;exitPerimeter=0;entryX=0;entryY=0.5;entryDx=0;entryDy=0;dashed=1;startArrow=none;startFill=0;endArrow=none;endFill=0;" parent="1" source="H59ljtGWUlVFBmVZXc05-49" target="H59ljtGWUlVFBmVZXc05-19" edge="1">
          <mxGeometry relative="1" as="geometry" />
        </mxCell>
        <mxCell id="H59ljtGWUlVFBmVZXc05-49" value="&lt;p class=&quot;MsoNormal&quot;&gt;A support agent will be connected to a live chat with a Traveller&lt;br/&gt;through the support subsystems micro frontend after assignment from the support&lt;br/&gt;agent coordinator.&amp;nbsp;&lt;/p&gt;" style="shape=note;whiteSpace=wrap;html=1;backgroundOutline=1;darkOpacity=0.05;labelBackgroundColor=none;sketch=1;fillColor=#ABFFFF;" parent="1" vertex="1">
          <mxGeometry x="-760" y="690" width="200" height="125" as="geometry" />
        </mxCell>
      </root>
    </mxGraphModel>
  </diagram>
</mxfile>
